<svg xmlns="http://www.w3.org/2000/svg" viewBox="0 0 474.6 538.54" xmlns:v="https://vecta.io/nano"><path d="M85.8 497.93l-12.92-8.88.66-22.05L63 482.3l-10.34-7.1 27.4-39.9 16.08 11c4.55 3.12 6.74 6.22 7.38 10.27a15.68 15.68 0 0 1-2.66 11.18c-4.1 6-9.87 7.83-16.45 5.24zm-5.75-36.34c4.07 2.8 7.67 2.54 9.8-.57s1-6.6-3-9.36l-1.9-1.3-6.8 9.94zM110 500.46l-6.5 6.32-12.1-5.44 36.77-36.55 12.5 5.6-3.25 51.6-12.25-5.5.6-9zm18.26-19.24l-11.16 11.93 9.53 4.28zm31.48-3.05l18.1 4.25c12.43 2.93 20.6 16.33 17.64 29s-16.3 21.07-28.72 18.15l-18.08-4.28zm6.42 40.27c8.12 1.9 14.65-2.07 16.52-10s-2.2-14.4-10.33-16.3l-2.83-.66-6.2 26.35zm65.76-16.24c-2.68-2.42-5.16-3.6-8.06-3.76s-5.46 1.48-5.6 3.8c-.1 1.52.92 2.82 3 4l5.32 2.07c8.26 3 11.5 7.17 11.07 14.12-.66 10.86-8 16.82-19.87 16.1a29.52 29.52 0 0 1-16.48-6.45l6-9.82c3.63 3.57 7.08 5.37 10.78 5.6s6.2-1.52 6.37-4.34c.16-2.6-1.44-3.94-7.2-6-5.4-1.93-7.45-3-9.17-4.63-2.26-2.24-3.3-5.43-3.05-9.64.6-9.7 7.65-15.9 17.43-15.3a33.44 33.44 0 0 1 15 4.83zM262 536.9l-12.5 1.2-4.5-48.17 19.9-1.88c5.63-.54 9.06.23 12.44 2.9a15.54 15.54 0 0 1 5.8 11.33c1 10.7-4.08 16.85-14.77 17.87l-7.8.74zm1.64-26.46c4.84-.46 6.76-2.53 6.35-6.8-.37-3.9-2.87-5.7-7.42-5.28l-4.2.4 1.15 12.06zM341.27 495c4.15 14.14-3.7 28-18.4 32.34s-28.82-3.1-33-17.22 3.73-28 18.42-32.27 28.82 3 33 17.15zm-38.78 11.4a13.64 13.64 0 1 0 9.32-16.89h-.06a13.63 13.63 0 0 0-9.26 16.89zm94-13.1l-13.88 7.28-19.23-10.9 8.62 16.44-11.15 5.8-22.45-42.86 17.3-9.06c4.88-2.56 8.64-3.05 12.52-1.73a15.64 15.64 0 0 1 8.62 7.53c3.37 6.42 2.3 12.38-3 17zm-34.82-11.9c4.37-2.3 5.83-5.6 4.08-8.94s-5.37-4-9.67-1.72L354 471.8l5.6 10.67zm57.65-4.82L409.2 484l-22.25-30.46-8.26 6-6.3-8.6 26.84-19.6 6.3 8.6-8.44 6.16z" fill="#fff"/><path d="M0,237.3C0,106.22,106.27,0,237.32,0S474.6,106.3,474.6,237.3,368.37,474.6,237.32,474.6,0,368.37,0,237.3Z" fill="#604734"/><path d="M10.7 237.3c0-125.2 101.45-226.66 226.6-226.66s226.56 101.5 226.56 226.66-101.44 226.6-226.6 226.6S10.7 362.5 10.7 237.3z" fill="#fff"/><path d="M97.28,237.3a140,140,0,1,1,140,140,140,140,0,0,1-140-140Z" fill="#e2001a"/><path d="M90.9 314.9H80.77l-5.15-8.9-5.07 8.75h-10l5.1 8.73-5.1 8.75h10.18L75.8 341l5.2-8.72h9.93l-5.07-8.63 5.1-8.74zm323.93 0H404.7l-5.15-8.9-5.07 8.75h-10l5.07 8.73-5.07 8.75h10.12l5.07 8.72 5.16-8.72h10l-5.1-8.63 5.14-8.74z" fill="#604734"/><g fill="#fff"><path d="M312.12 146.53H302l-5.15-8.82-5.07 8.77h-10l5.07 8.7-5.1 8.82h10.17l5.07 8.7 5.1-8.7h10l-5.1-8.7 5.16-8.78zm-71.42 6.34c11 .72 18.93 9 19.75 19.8h-45.58c.78-10.8 8.75-19.07 19.7-19.8v-21.25h-13.65v-6.13h13.65v-18.2h6.1v18.25h13.7v6.1h-13.7v21.25zm-88.12 25.86h51.67v9.1h-51.67zm59.27 0h51.67v9.1h-51.67zm59.27 0h51.67v9.1h-51.67zm-118.54 57.74h170.2v9.1h-170.2v-9.1zm0 50.15h45.58v9.1h-45.58zm124.62 0h45.58v9.1H277.2v-9.1zM158.76 195c4.4-1.3 11.6-3.56 16.92-.45 2.7 1.55 1.06 4.17.16 6.56a13 13 0 0 1-9 2.94 12.68 12.68 0 0 1-8.09-2.6c-.9-2.34-2.9-5.6 0-6.45zm24 7.28s-1.8-5.12 0-7.26c2-2.35 5.1-.5 8-.5a41.64 41.64 0 0 0 5.24 0s1.47 5.13 0 7.7c-2.62 4.47-13.25 0-13.25 0zm-21.34 5.4c-1.88 1.9-2.54 2.4-2.66 5.83s.86 5.4 3.3 5.4a10.3 10.3 0 0 0 2-.14l.17-6.54c0-2.17-.74-4-2.78-4.56zm56.9.28a21.49 21.49 0 0 0-.41 5.88c0 2.1.08 4.78 2.16 4.9 3.64.18 3.4-5.54 3.4-8.28.04-2.3-2.83-2.33-5.1-2.46zm-2.42-11.22c0 1.44 2 3.4 3 4.27 2 1.75 3.68 1.53 6.33 1.53 1.52 0 3.15-.27 4.66-.27 3.1 0 5.07-2.3 5.07-5.4 0-2.76-4-3.72-6.74-3.72h-6.54c-2.42 0-5.77 0-5.77 3.58zm24.44 5.3c1 1 2 .65 3.4.65h4.58c2.53 0 4 .27 6-1.35 1.63-1.37.8-2.8.8-5s-4.37-3.05-7.6-3.13c-2.7-.08-4.9-.2-6.62 1.88s-.54 6.93-.54 6.93zm-71.78 8.55c0 1.66-.53 3.68-.53 5.34 0 2 4.5 2.55 6.46 2.86a52.45 52.45 0 0 0 8.86.3c2.75 0 5.28-2 5.28-4.7 0-2 .5-3.6-.82-5.1-1.7-2-3.76-1.9-6.42-2.22-4.6-.53-11.4-.88-12.83 3.5zm59.36 0a6.54 6.54 0 0 0 .86 5.77c1.88 2.86 4 2.57 8.42 2.57s10.87-2.14 10.22-8.07c-.2-1.88-4-2.48-6.3-3 0 0-11.93-2.32-13.2 2.76zm23.1 3.22c0 2.45-.7 5.4 2.37 5.4 2.86 0 3.1-1.37 3.1-3.72 0-2 2.2-7.62-.9-8a4 4 0 0 0-3.56 1.3c-1.4 1.42-1 3-1 5zm24.3-15.52c0 4.6 3.85 6.44 11 6 4-.27 8.46.22 7.77-7.42-.1-.88.65-1.66 0-2.15-5-3.72-5.64 0-9.3 0s-9.52-.12-9.52 3.6zm26-1.4v3.23c0 2.7 1.55 6.05 4.3 6.05 1.2 0 2.87-.23 4-.23 4 0 6.62-3.55 6.62-7.56 0-2.07-2.78-3.54-4.78-4l-6.2.67-3.28.16c-.57.2-.65 1-.65 1.68zm-21.57 10.77c-2.78 2.55-2.9 3.15-2.9 6.85 0 .55.25 3.6.25 4.15.57 0 1.84.26 2.46.26 2.3 0 3.1-3.23 3.1-5.56a6.16 6.16 0 0 0-2.9-5.7zm6.6 5.63a7.5 7.5 0 0 0 2.33 3.66c2.37 2.12 5 1.63 8 1.63s7.3-1.43 7.64-5.72c.2-3.47-6.66-5.17-9.72-5.17-3.36 0-9 1.33-8.22 5.6zM301 226c0 3.83 4.3 5.62 8.08 5.62 1.85 0 2.58-1.28 4.1-2.2s2.9-1.6 2.9-3.25c0-2.74-2.82-4.28-5.53-4.28-4.08 0-9.55.06-9.55 4.1zm-9.52 5.6c2.5-1.6 4.95-5.37 2.57-7.1-1.5-1.06-3.8.14-4.78.14-1.72 0-2.78-.92-4.6-1-2.9-.16-5.73-1-7.24 1.5a5.32 5.32 0 0 0-.78 2.48c0 2.2-.08 3.2 1.15 4.66 2 2.45 5 0 8.25 0 2 0 3.64.5 5.44-.7zm-38 0a30.07 30.07 0 0 1-5.1.41 12.76 12.76 0 0 1-7.32-2.1c-.66-.46-.66-1.15-.66-2.34 0-3.27 6.1-4.3 9.37-4.3 3.1 0 5.43 1 5.43 4.07a6.63 6.63 0 0 1-1.72 4.25zm-25.33-7.6l-5.07.06c-2.58 0-6.9 0-6.9 2.57 0 3.34 3.1 3.56 6.42 3.56h6.54c3.14 0 5.72-.57 5.72-3.7 0-1.34-1.84-2.23-3.2-2.23s-2-.26-3.5-.26zm-37.87 8h-7.2c.08-1-2.12-1.6-2.12-2.62s.93-2.1 1.88-3.1c3.43-3.72 8.33.32 13 .32 0 .62.12 2 .12 2.62 0 1-1.34 1.53-2.16 2-1.68 1.06-1.47.77-3.52.77zm-17.73-.4c-5.72 0-6.37.57-12 .13 0-.3-1.64-2.8-1.64-3.64-.08-3.4 2.05-3.54 5.4-3.54 4.3 0 11.12-2.25 11.12 2 0 1.94-1 5.07-2.87 5.07zm-14.07 24c.4 4 6 2.48 10 2.48 3.27 0 5.27.9 8.34-.16 2.24-.78 2.7-3.1 2.7-5.44 0-1.23-1.88-1.8-3.06-1.92-3.3-.33-4.17.34-7.07-1.27-3.6-2-11.37 1.27-10.88 6.3z"/><path d="M186.55 250.5c-2.57 1.92.17 7.3 3.76 7.3l7.2-.1 3.2.1h5.88c3 0 6.46-1.43 6-5.42-.2-2.34-3.76-2.18-6.1-2.18-4.13 0-6.54.4-10.67.4h-4.12c-2.16 0-3.5-1.33-5.15-.12zm-28.05 13.17c-2.33 1.43.25 4.47.17 7s2 2.26 3.4 2.26c2.17 0 4.17-1 4.17-3.14 0-3.56-1.5-6.7-5-6.7a4.7 4.7 0 0 0-2.7.58zm37.38 4a3.64 3.64 0 0 0 3.76 3.42c3.2 0 5-3.58 5.44-7.1-1.84-1.7-4.54-.26-7.07-.26-1.88 0-2.13 2.08-2.13 3.94zm-13 11.43c0 2.1 1.7 2.92 3.8 2.92 2.9 0 6.26.88 8.47-.88 1.55-1.2 1.55-2.84 1.55-4.78 0-.8-.08-.9-.94-1.53-.45 0-2.57-.4-3-.4-5.06 0-9.84-.4-9.84 4.66zm-2.75-17.1c-1.88.16-2.8 1.52-4.6 1.52-2.34 0-6-.76-5.73 3.27.25 4.2 2.87 6.16 9.57 6.16 5.64 0 10.18-2.14 10.18-6.7 0-3.84-5.4-4.6-9.4-4.25zm80.6-11.42c4.74-4.62 17.9 0 29.35 0 2.2 0 4.94 2.26 4.94 4.47 0 2.66-4.4 2.9-7.07 2.9h-20.8c-4 0-7.2-1.1-6.2-6.57 0-.3-.4-.57-.2-.8zm40.63 0v4.46c0 1.57-.94 3.1 3 2.84l5.93-.1h3.4c2.38 0 2.78-3.33 2.78-5.68 0-1.1-1.35-1.33-2.4-1.5a21 21 0 0 0-5.35-.72c-2.87 0-4.5.72-7.32.72zm-29.7 14.93c.8 4.06 3.68 7.25 7.72 7.25 3.27 0 4.46-4 5.48-7.1 0 0-3.68-2.76-6.42-2.82s-6.78 2.66-6.78 2.66zm18.54-1.93a4.14 4.14 0 0 0-1.76 3.76 8.3 8.3 0 0 0 1.51 5.33c2.7 3.33 6.6 0 11 0 3.15 0 4.58-2.78 4.17-7.3-.2-2.5-3.64-2.07-6.17-2.07h-3.68s-3.48-.88-5 .3zm20.57 2.4v4c0 1.82 2.54 2.56 4.37 2.56a10.17 10.17 0 0 0 1.56-.15s2.4-3.8 1.47-6c-.7-1.68-2.74-3.1-3.52-3.1-1.55 0-2.9 1.6-3.88 2.7zm5.33 10.46l-7.77.1c-3.35 0-8.13-.47-8.13 2.88 0 1.58 1.5 2.64 2.78 3.46a3.57 3.57 0 0 0 2.9.9c1.92 0 4.37.2 6.17-.4 1.27-.4 3.15-.66 4-1.64 1.06-1.14.24-3.7 0-5.3zm-14.65 24.1c-1.88 1.66 0 4.66 1.27 6.3s3.35.57 5.56.57c1.3 0 2.37.3 3.64.3 4.53.14 4-4.05 4.17-7.3 0 0-10.88-3.24-14.64.1zm-16.57 7.25c-2.45-.1-3.92-.22-5.26-2.23a9.21 9.21 0 0 1-1.77-4.23V300c.42 0 .66-.15 1-.15 3.15 0 4.37-.4 7.52-.4 2.2 0 4 .9 6.26.9 1 0 2.85 1.74 2.85 2.8 0 5.34-4.65 4.8-10.63 4.62zm-5.13 3.84c-1.23 2.14-2.54 3.86-2.54 6.33 0 1.86-.57 3.5 4.67 2.88 1.54-.18 3.43.76 3.5-2.37s-2.2-7.17-5.64-6.84zm8.83 4.8c0 2.56.65 4.8 4.9 4.56 1.8-.1 5.8 0 5.8 0a13.4 13.4 0 0 0 4.83-.68c1.5-.75 2.86-1.64 2.86-3.37s-1.7-2.3-2.62-3.78c-1-1.64-5.68-2-8.78-2-3.32 0-7 2-7 5.24zm23.1-4.66s-2.82 4.2-1.6 6.44a5.68 5.68 0 0 0 3.69 2.45c1.63 0 3.35-.86 3.43-2.5.3-5.5-2.2-7-5.52-6.38zm-33.8 16.57v1.07c0 1.57-.16 2.67.58 4.06 1.6 3.13 5.3 2 8.87 2 3 0 7.36.94 7.36-2 0-2.22.36-3.82-.86-5.62-1.35-2.12-4.13-1.06-6.63-1.34-5.8-.58-6.05.4-9.32 1.83zm23.57-1.7c-.53 2.4-1.8 3.35-1.8 5.78s2.3 3.8 5.85 3.07c2.3-.47 4.2.82 6-.68 2.53-2.16 2.74-4.3 3.3-7.66a10.89 10.89 0 0 0-3.44-1c-1.05 0-1.7.32-2.82.32a45.63 45.63 0 0 0-7.11.19zm-7.4 13.22c-3.18 1.3-5.47 2.17-5.47 5.2 0 2.43 2.94 2.17 5.4 2.17 3.8 0 8.34-2.05 7.6-6.2-.2-1.25-1.83-1.82-3.1-1.82a23.58 23.58 0 0 0-4.42.65zm-16.68 4.46c0 3.08-.16 6.68 3.93 7 2.54.18 3.6-3.2 3.6-5.75 0-1.3-.52-2.16-.52-3.5-1.07-1.47-2.5-3.52-4.1-2.54a5.29 5.29 0 0 0-2.91 4.81zm-101.44-4.92c-2.58 0-6.05.28-6.05 2.9 0 3.83 4 5 10 4.58 2-.18 4.9 1.08 5-1.9.08-3.64-5.23-5.58-8.9-5.58zm14.27-15c-1.4.94-5 1.72-6.66 1.9-1.84.2-2.4 1.84-2.4 3.66l.12 4.9c1.26 1.28 2.94.65 4.7.65s3.23.5 5 .5a4.19 4.19 0 0 0 4.25-3.23c.9-4-.5-6.36-5-8.38zm-26 11.1c-1.8 0-3.85.65-4.54-1-.94-2.24-.7-3.74-.7-6.17a14.29 14.29 0 0 1 .17-1.85h14.22c1.8 0 3.6 1.23 3.6 3.1 0 3.2-2.13 6.17-5.3 6.17-2.7 0-4.75-.22-7.44-.22zm10.83-23.72c-2.25 0-3.56 2.6-3.56 4.8 0 1.58-1.06 3.23.25 4.27 5.72 4.56 22.23.45 22.23.45a13.1 13.1 0 0 0 1.35-5.3c0-3.88-4.74-4.1-8.63-4.1-1 0-9.23-.14-11.6-.14zM158.27 321c0-2.17-1.64-4-1.64-6.2 0-1.77 2.37-2.8 4.17-3.05 5.15-.73 6.87 6.87 3.76 9.25-1.92 1.47-6.3 0-6.3 0zm7.6-13c-4.82-.1-7.2-2.1-7.2-5.8 0-2.13 1.5-3.64 4.66-3.33 3.43.33 5.4-.16 8.86-.16 2.42 0 3.32 2.92 3.32 5.37 0 3.68-3 4-9.65 3.93zm25.58-9.3H188c-4.45-.15-6.74.08-6.74 2.6 0 1.45-.12 3 1.14 4.27 2.87 0 3.68 2.3 6.54 2.3 2.58 0 5.8-1.5 5.48-5.35-.12-1.86-1.06-3.82-2.94-3.82zm.5 40.44c-2.13.37-1.8 3.68-1.88 5.85-.13 4.37-.2 5.76 2.13 5.76.9 0 3.1-.55 3.1-2.63s1-2.9 1-4.9c0-1.6-1.8-3.72-4.33-4.1zm122.25-122h-3.72c-1.64 0-2.05-2.3-2.05-4 0-1.43-.57-2.3 0-3.56 1.27-2.86 8.05 0 8.05 0V213c0 1.42-1.55 3-2.28 4.1zm-120.62-70.6h-10.14l-5.15-8.82-5.07 8.77h-10l5.07 8.7-5.07 8.82h10.18l5.07 8.7 5.15-8.7h9.93l-5.07-8.64zm47 122.27v94.27c5.53 0 10.54-.33 15.17-2.93V285.8c.05-9.36-6.37-17-15.12-17zm-5.83 0c-8.6 0-15.17 7.64-15.17 17v74.27c4.48 2.54 8.7 2.9 15.17 3zm2.85-14.1c-17.78 0-31.6 13.28-31.6 30.4v68.76a21.43 21.43 0 0 0 7.44 3.33v-71.62c0-13.08 10.6-23.25 24.16-23.25s24.23 10.17 24.23 23.25v71.66a22 22 0 0 0 7.41-3.37V285.1c0-17.12-13.82-30.4-31.64-30.4zm-46-39.77c0 .63.86 2.32.86 2.94 0 .43 1.43.06 1.84.06a2.12 2.12 0 0 0 2-2.17c0-2.53 2.13-4.7.82-8.23-.7-1.84-3.35-1-5 0-1 2.74-.58 5-.58 7.4zm-34.82 66.2c.08 1.9 5.27 1.6 7.76 1.78 4.17.32 3.56-.88 7.73-.88 1.06 0 5 .2 5-.88 0-3-2-4.54-6.95-4.68-9.73-.25-11.7 1-13.57 4.66zm139.08-2.2c-1.7-3.23-4.7-2.53-7.92-2.53l-5.4.2c-1.7 0-3.4.84-3.4 2.5 0 1.4 1.1 2 2.25 2.65 1.7 1 14.02.5 14.5-2.82z"/></g><g fill="#604734"><path d="M260.3,82.12,261.9,64c14.27,1.63,24.32-1.9,25.6-16.32s-9.4-19.74-23.74-21l-15-1.3-4.8,55.3,16.43,1.45ZM270.88,46c-.37,4.13-3.4,6.15-7.9,5.53l1.1-12.77h1.23c4.05.32,5.85,3.68,5.56,7.2Zm57,61.73,13.18-55.44-18.07-9-37.9,43.1,15.2,7.6,4.4-5.8,9.93,5-2.08,6.93,15.3,7.6ZM312,78.65l7.76-10.53c2.13-2.82,4.1-5.78,6.05-8.67l.16.07-3.6,9.9-4.17,12.34-6.2-3.1Z" fill-rule="evenodd"/><path d="M83.8 206.67l-21-3.7 2.1-11.65-12.9-2.27-2 11.67-7.9-1.4 2.17-12.45-12.97-2.27-5 28.7L81 223l2.86-16.28zM53.5 132a25.17 25.17 0 0 0-5 6.93c-3.63 7.13-8.42 25.8 13.78 37.1 16.92 8.63 30.44 2.6 36.6-9.42a25.61 25.61 0 0 0 2.74-9.8l-13.4-7.93c.77 3.4.9 6.08-.82 9.4-3.76 7.38-12 5.5-17.82 2.56-5.47-2.78-12.18-8.57-8.25-16.22 1.5-3 3.43-4.25 6.37-5.4L53.52 132zm332.8 56.77l12-5.35-5-11.3 38.7-17.25-6.7-15.13-50.72 22.62 11.77 26.4zm9-92.95l-25.62 23.78a16.49 16.49 0 0 1-3.85 3.05 3.51 3.51 0 0 1-4.54-1 3.6 3.6 0 0 1-.61-4.63 15.74 15.74 0 0 1 3.27-3.59L389.5 89.6l-11.24-12.08-26.57 24.77c-4.9 4.58-13.66 14.94-.6 28.92s24 6 28.9 1.4l26.56-24.73-11.28-12.1zm-192.52-9.9c4.78-1.66 7.6-6.52 6-10.9-1.6-4.66-6.87-6.64-11.85-4.93-4.54 1.56-7.2 6.52-5.73 10.77 1.5 4.46 6.63 6.75 11.53 5.07zm-22.36 5.6l-17.75-38 8.6-4-5.72-12.28L133.7 52l5.76 12.26 8.18-3.82L165.4 98.5l15-7zm-55 33.3a36 36 0 0 0 11-6.21c8.83-7.4 9.6-18.85 2.94-26.73a14.72 14.72 0 0 0-8.5-5.48c-3-.7-6.46-.5-10.55 0a21.5 21.5 0 0 1-3.76.2 4.55 4.55 0 0 1-3.23-1.32c-1.34-1.62-.36-4.1 1.1-5.38a17.36 17.36 0 0 1 9.58-4.11l-9.2-10.5a28.67 28.67 0 0 0-10.8 5.41c-10.8 9.08-6.7 21-2.53 26a15.14 15.14 0 0 0 8.79 5.29c3.35.72 6.87.5 10.83.17a14.49 14.49 0 0 1 3.48-.15 4.22 4.22 0 0 1 3 1.56c1.55 1.86.37 4.5-1.35 6-3.23 2.7-5.6 3.43-10.18 3.7l9.36 11.6zM392.9 223l55-7.73-2.33-16.37-55 7.72L392.9 223z"/><path d="M293.6,383.86c-16.06,5.56-15.08,22.57-11.07,34.17s13.7,25.63,29.76,20.1,15.08-22.56,11.12-34.17-13.74-25.62-29.8-20.1ZM297.77,396c4.75-1.67,8.18,7.36,10.22,13.24s4.86,15.17.12,16.8-8.17-7.4-10.2-13.33-4.87-15.07-.13-16.7Z" fill-rule="evenodd"/><path d="M162.1,437.37l21.82-51.08-18.2-7.77-8.1,10.5,6,2.58-16.76,39.27,15.2,6.5Zm106,11.07-5.56-55.2-19.62,2-2.05,13.08,6.55-.66,4.25,42.5,16.43-1.68Z"/><path d="M210.67,403.3c5.3,1.14,4.74,5.72,4.25,8.3s-2.12,6.38-7,5.36-5.07-5.23-4.58-7.6c.57-2.53,2-7.16,7.36-6ZM189.33,445l16.1,3.07,8.2-8.18c5.9-6.58,14.1-16.1,15.9-24.6,2.33-10.87-2.7-21.2-15.36-23.88-12.92-2.75-22.65,3.9-25.1,15.34-1.64,7.64,1.4,18.3,11,20.35a11,11,0,0,0,5.88-.32L189.27,445Z" fill-rule="evenodd"/></g></svg>